<?xml version="1.0" encoding="UTF-8"?>
<svg xmlns="http://www.w3.org/2000/svg" viewBox="0 0 32 32" width="2400" height="2400"><path d="M18.04 25.606a2.72 2.72 0 0 1 .852 2.02 2.674 2.674 0 0 1-.862 2.108 2.932 2.932 0 0 1-2.01.766 3.014 3.014 0 0 1-2.04-.757 2.653 2.653 0 0 1-.872-2.116 2.845 2.845 0 0 1 2.873-2.854 2.837 2.837 0 0 1 2.059.833zm-4.147-7.71a8.67 8.67 0 0 0 .575 2.653 1.45 1.45 0 0 0 1.436.872 1.505 1.505 0 0 0 1.456-.9 7.404 7.404 0 0 0 .575-2.586l.823-9.443a25.023 25.023 0 0 0 .134-2.567 7.71 7.71 0 0 0-.555-3.285 2.207 2.207 0 0 0-2.203-1.14 2.863 2.863 0 0 0-2.193.89 3.49 3.49 0 0 0-.833 2.481q0 1.168.172 3.85z"/></svg>
